<mxfile host="65bd71144e">
    <diagram id="ZM09xl-fuDKo_xaskiYn" name="ARQ">
        <mxGraphModel dx="859" dy="897" grid="0" gridSize="10" guides="1" tooltips="1" connect="1" arrows="1" fold="1" page="0" pageScale="1" pageWidth="850" pageHeight="1100" math="0" shadow="0">
            <root>
                <mxCell id="0"/>
                <mxCell id="1" parent="0"/>
                <mxCell id="45" value="&lt;font color=&quot;#1a1a1a&quot;&gt;&lt;br&gt;&lt;/font&gt;" style="rounded=1;whiteSpace=wrap;html=1;fillColor=#ffcc99;strokeColor=#36393d;rotation=-90;arcSize=20;" parent="1" vertex="1">
                    <mxGeometry x="160.73" y="-45.04" width="81.84" height="168" as="geometry"/>
                </mxCell>
                <mxCell id="2" value="" style="rounded=1;whiteSpace=wrap;html=1;fillColor=#f8cecc;strokeColor=#b85450;rotation=-90;gradientColor=#ea6b66;" parent="1" vertex="1">
                    <mxGeometry x="169.19" y="114.02" width="64.03" height="166.28" as="geometry"/>
                </mxCell>
                <mxCell id="6" value="&lt;font color=&quot;#828282&quot; style=&quot;font-size: 18px;&quot;&gt;&lt;b style=&quot;&quot;&gt;Arquitectura N-TIER&lt;br&gt;EcuAnt2k24&lt;br&gt;&lt;/b&gt;&lt;/font&gt;" style="text;html=1;strokeColor=none;fillColor=none;align=center;verticalAlign=middle;whiteSpace=wrap;rounded=0;labelBackgroundColor=none;fontColor=#333333;" parent="1" vertex="1">
                    <mxGeometry x="75.92" y="-63" width="245" height="30" as="geometry"/>
                </mxCell>
                <mxCell id="10" value="&lt;font color=&quot;#1a1a1a&quot;&gt;&lt;b&gt;ALFramework&lt;/b&gt;&lt;br&gt;&lt;br&gt;&lt;br&gt;&lt;br&gt;&lt;br&gt;&lt;br&gt;&lt;br&gt;&lt;br&gt;&lt;br&gt;&lt;br&gt;&lt;br&gt;&lt;br&gt;&lt;br&gt;&lt;br&gt;&lt;/font&gt;" style="rounded=1;whiteSpace=wrap;html=1;fillColor=#dae8fc;strokeColor=#6c8ebf;gradientColor=#7ea6e0;" parent="1" vertex="1">
                    <mxGeometry x="301" width="121" height="232.77" as="geometry"/>
                </mxCell>
                <mxCell id="15" value="&lt;span style=&quot;&quot;&gt;&lt;font color=&quot;#000000&quot;&gt;&lt;b&gt;ALException&lt;/b&gt;&lt;/font&gt;&lt;/span&gt;" style="rounded=1;whiteSpace=wrap;html=1;fillColor=#f5f5f5;strokeColor=none;gradientColor=#b3b3b3;" parent="1" vertex="1">
                    <mxGeometry x="314" y="35.39" width="99" height="25.56" as="geometry"/>
                </mxCell>
                <mxCell id="16" value="&lt;div style=&quot;&quot;&gt;&lt;font color=&quot;#000000&quot;&gt;&lt;b&gt;ALConfiguration&lt;/b&gt;&lt;/font&gt;&lt;/div&gt;" style="rounded=1;whiteSpace=wrap;html=1;fillColor=#f5f5f5;strokeColor=none;gradientColor=#b3b3b3;" parent="1" vertex="1">
                    <mxGeometry x="314" y="71.2" width="99.6" height="29.75" as="geometry"/>
                </mxCell>
                <mxCell id="44" value="" style="edgeStyle=none;html=1;" parent="1" source="20" target="6" edge="1">
                    <mxGeometry relative="1" as="geometry"/>
                </mxCell>
                <mxCell id="20" value="&lt;font color=&quot;#1a1a1a&quot;&gt;&lt;br&gt;&lt;/font&gt;" style="rounded=1;whiteSpace=wrap;html=1;fillColor=#d5e8d4;strokeColor=#82b366;rotation=-90;gradientColor=#97d077;" parent="1" vertex="1">
                    <mxGeometry x="165.03" y="42.08" width="66.78" height="165.84" as="geometry"/>
                </mxCell>
                <mxCell id="22" value="&lt;font color=&quot;#1a1a1a&quot;&gt;&lt;b&gt;&amp;nbsp;ALEntities&lt;/b&gt;&lt;/font&gt;" style="rounded=1;whiteSpace=wrap;html=1;fillColor=#f5f5f5;strokeColor=#666666;gradientColor=#b3b3b3;" parent="1" vertex="1">
                    <mxGeometry x="156.81" y="104" width="75" height="47" as="geometry"/>
                </mxCell>
                <mxCell id="27" value="&lt;b style=&quot;&quot;&gt;&lt;font color=&quot;#4d4d4d&quot;&gt;Data&lt;br&gt;Sources&lt;br&gt;&lt;br&gt;&lt;br&gt;&lt;br&gt;&lt;br&gt;&lt;br&gt;&lt;br&gt;&lt;br&gt;&lt;br&gt;&lt;br&gt;&lt;/font&gt;&lt;br&gt;&lt;/b&gt;" style="rounded=1;whiteSpace=wrap;html=1;fillColor=none;strokeColor=#b85450;rotation=-90;gradientColor=#ea6b66;" parent="1" vertex="1">
                    <mxGeometry x="156.2" y="202" width="86.37" height="170.5" as="geometry"/>
                </mxCell>
                <mxCell id="29" value="&lt;font color=&quot;#1a1a1a&quot;&gt;&lt;b&gt;ALGUI&lt;/b&gt;&lt;br&gt;&lt;/font&gt;" style="rounded=1;whiteSpace=wrap;html=1;fillColor=#ffcc99;strokeColor=#36393d;rotation=-90;" parent="1" vertex="1">
                    <mxGeometry x="49" y="18.39" width="71.75" height="31.87" as="geometry"/>
                </mxCell>
                <mxCell id="31" value="&lt;font color=&quot;#1a1a1a&quot;&gt;&lt;b&gt;ALEcuAntApp&lt;/b&gt;&lt;/font&gt;" style="rounded=1;whiteSpace=wrap;html=1;fillColor=#f5f5f5;strokeColor=#666666;gradientColor=#b3b3b3;" parent="1" vertex="1">
                    <mxGeometry x="132.7" y="29" width="131.45" height="28.62" as="geometry"/>
                </mxCell>
                <mxCell id="41" value="&lt;font color=&quot;#1a1a1a&quot;&gt;&lt;b&gt;ALGuardarDatos&lt;/b&gt;&lt;br&gt;&lt;/font&gt;" style="rounded=1;whiteSpace=wrap;html=1;fillColor=#f9f7ed;strokeColor=#36393d;" parent="1" vertex="1">
                    <mxGeometry x="139" y="173.66" width="106.5" height="47" as="geometry"/>
                </mxCell>
                <mxCell id="43" value="ALHormigueroRegistro" style="verticalLabelPosition=bottom;html=1;verticalAlign=top;align=center;strokeColor=none;fillColor=#00BEF2;shape=mxgraph.azure.cloud_services_configuration_file;pointerEvents=1;" parent="1" vertex="1">
                    <mxGeometry x="174.67000000000002" y="250" width="47.5" height="50" as="geometry"/>
                </mxCell>
                <mxCell id="46" value="&lt;font color=&quot;#1a1a1a&quot;&gt;&lt;br&gt;&lt;/font&gt;" style="rounded=1;whiteSpace=wrap;html=1;fillColor=#ffcc99;strokeColor=#36393d;rotation=-90;" parent="1" vertex="1">
                    <mxGeometry x="760.02" y="-132" width="94.37" height="342.26" as="geometry"/>
                </mxCell>
                <mxCell id="47" value="&lt;font color=&quot;#1a1a1a&quot;&gt;&lt;b&gt;DAC&lt;br&gt;&lt;br&gt;&lt;br&gt;&lt;br&gt;&lt;br&gt;&lt;br&gt;&lt;br&gt;&lt;br&gt;&lt;br&gt;&lt;br&gt;&lt;br&gt;&lt;br&gt;&lt;br&gt;&lt;br&gt;&lt;br&gt;&lt;br&gt;&lt;br&gt;&lt;br&gt;&lt;br&gt;&lt;br&gt;&lt;br&gt;&lt;br&gt;&lt;/b&gt;&lt;br&gt;&lt;/font&gt;" style="rounded=1;whiteSpace=wrap;html=1;fillColor=#f8cecc;strokeColor=#b85450;rotation=-90;gradientColor=#ea6b66;" parent="1" vertex="1">
                    <mxGeometry x="776.86" y="35.39" width="64.03" height="340.74" as="geometry"/>
                </mxCell>
                <mxCell id="48" value="&lt;font color=&quot;#1a1a1a&quot;&gt;&lt;b&gt;DAO&lt;/b&gt;&lt;br&gt;&lt;/font&gt;" style="rounded=1;whiteSpace=wrap;html=1;fillColor=#f9f7ed;strokeColor=#36393d;" parent="1" vertex="1">
                    <mxGeometry x="669" y="185.39" width="44" height="47" as="geometry"/>
                </mxCell>
                <mxCell id="49" value="&lt;font color=&quot;#828282&quot; style=&quot;font-size: 18px;&quot;&gt;&lt;b style=&quot;&quot;&gt;Arquitectura N-TIER&lt;br&gt;EcuAnt2k24&lt;br&gt;&lt;/b&gt;&lt;/font&gt;" style="text;html=1;strokeColor=none;fillColor=none;align=center;verticalAlign=middle;whiteSpace=wrap;rounded=0;labelBackgroundColor=none;fontColor=#333333;" parent="1" vertex="1">
                    <mxGeometry x="686.55" y="-65.61" width="245" height="30" as="geometry"/>
                </mxCell>
                <mxCell id="50" value="&lt;font color=&quot;#1a1a1a&quot;&gt;&lt;b&gt;Data Helper&lt;/b&gt;&lt;br&gt;&lt;/font&gt;" style="rounded=1;whiteSpace=wrap;html=1;fillColor=#f9f7ed;strokeColor=#36393d;" parent="1" vertex="1">
                    <mxGeometry x="807" y="185.38999999999996" width="58" height="47" as="geometry"/>
                </mxCell>
                <mxCell id="51" value="&lt;font color=&quot;#1a1a1a&quot;&gt;&lt;b&gt;Framework&lt;/b&gt;&lt;br&gt;&lt;br&gt;&lt;br&gt;&lt;br&gt;&lt;br&gt;&lt;br&gt;&lt;br&gt;&lt;br&gt;&lt;br&gt;&lt;br&gt;&lt;br&gt;&lt;br&gt;&lt;br&gt;&lt;br&gt;&lt;/font&gt;" style="rounded=1;whiteSpace=wrap;html=1;fillColor=#dae8fc;strokeColor=#6c8ebf;gradientColor=#7ea6e0;" parent="1" vertex="1">
                    <mxGeometry x="987" y="-6.609999999999999" width="121" height="247" as="geometry"/>
                </mxCell>
                <mxCell id="52" value="&lt;span style=&quot;&quot;&gt;&lt;font color=&quot;#000000&quot;&gt;&lt;b&gt;Exception&lt;/b&gt;&lt;/font&gt;&lt;/span&gt;" style="rounded=1;whiteSpace=wrap;html=1;fillColor=#f5f5f5;strokeColor=none;gradientColor=#b3b3b3;" parent="1" vertex="1">
                    <mxGeometry x="1007.4000000000001" y="60.39" width="90.19" height="25.56" as="geometry"/>
                </mxCell>
                <mxCell id="53" value="&lt;div style=&quot;&quot;&gt;&lt;font color=&quot;#000000&quot;&gt;&lt;b&gt;Configuration&lt;/b&gt;&lt;/font&gt;&lt;/div&gt;" style="rounded=1;whiteSpace=wrap;html=1;fillColor=#f5f5f5;strokeColor=none;gradientColor=#b3b3b3;" parent="1" vertex="1">
                    <mxGeometry x="1011" y="96.39" width="90.19" height="25.75" as="geometry"/>
                </mxCell>
                <mxCell id="54" value="" style="edgeStyle=none;html=1;" parent="1" source="55" target="49" edge="1">
                    <mxGeometry relative="1" as="geometry"/>
                </mxCell>
                <mxCell id="55" value="&lt;font color=&quot;#1a1a1a&quot;&gt;&lt;br&gt;&lt;/font&gt;" style="rounded=1;whiteSpace=wrap;html=1;fillColor=#d5e8d4;strokeColor=#82b366;rotation=-90;gradientColor=#97d077;" parent="1" vertex="1">
                    <mxGeometry x="774.11" y="-38.98" width="66.78" height="340.74" as="geometry"/>
                </mxCell>
                <mxCell id="56" value="&lt;span style=&quot;color: rgb(26, 26, 26);&quot;&gt;&lt;b&gt;Business Logic&lt;/b&gt;&lt;/span&gt;" style="rounded=1;whiteSpace=wrap;html=1;fillColor=#f5f5f5;strokeColor=#666666;gradientColor=#b3b3b3;" parent="1" vertex="1">
                    <mxGeometry x="662" y="107.89000000000001" width="63" height="47" as="geometry"/>
                </mxCell>
                <mxCell id="57" value="&lt;font color=&quot;#1a1a1a&quot;&gt;&lt;b&gt;&amp;nbsp;Entities&lt;/b&gt;&lt;/font&gt;" style="rounded=1;whiteSpace=wrap;html=1;fillColor=#f5f5f5;strokeColor=#666666;gradientColor=#b3b3b3;" parent="1" vertex="1">
                    <mxGeometry x="737" y="110.39000000000001" width="63" height="47" as="geometry"/>
                </mxCell>
                <mxCell id="58" value="&lt;b style=&quot;&quot;&gt;&lt;font color=&quot;#4d4d4d&quot;&gt;Data&lt;br&gt;Sources&lt;br&gt;&lt;br&gt;&lt;br&gt;&lt;br&gt;&lt;br&gt;&lt;br&gt;&lt;br&gt;&lt;br&gt;&lt;br&gt;&lt;br&gt;&lt;/font&gt;&lt;br&gt;&lt;/b&gt;" style="rounded=1;whiteSpace=wrap;html=1;fillColor=none;strokeColor=#b85450;rotation=-90;gradientColor=#ea6b66;" parent="1" vertex="1">
                    <mxGeometry x="681.89" y="227.04999999999998" width="86.37" height="170.5" as="geometry"/>
                </mxCell>
                <mxCell id="59" value="&lt;font color=&quot;#1a1a1a&quot;&gt;&lt;b&gt;ALGUI&lt;/b&gt;&lt;br&gt;&lt;/font&gt;" style="rounded=1;whiteSpace=wrap;html=1;fillColor=#ffcc99;strokeColor=#36393d;rotation=-90;" parent="1" vertex="1">
                    <mxGeometry x="577" y="21.39" width="71.75" height="31.87" as="geometry"/>
                </mxCell>
                <mxCell id="60" value="&lt;span style=&quot;color: rgb(26, 26, 26);&quot;&gt;&lt;b&gt;UI Component&lt;/b&gt;&lt;/span&gt;" style="rounded=1;whiteSpace=wrap;html=1;fillColor=#f5f5f5;strokeColor=#666666;gradientColor=#b3b3b3;" parent="1" vertex="1">
                    <mxGeometry x="649.82" y="23.020000000000003" width="131.45" height="28.62" as="geometry"/>
                </mxCell>
                <mxCell id="61" value="&lt;font color=&quot;#1a1a1a&quot;&gt;&lt;b&gt;DTO&lt;/b&gt;&lt;br&gt;&lt;/font&gt;" style="rounded=1;whiteSpace=wrap;html=1;fillColor=#f9f7ed;strokeColor=#36393d;" parent="1" vertex="1">
                    <mxGeometry x="723.27" y="182.25999999999996" width="58" height="47" as="geometry"/>
                </mxCell>
                <mxCell id="62" value="&lt;font color=&quot;#1a1a1a&quot;&gt;&lt;b&gt;IDAO&lt;/b&gt;&lt;br&gt;&lt;/font&gt;" style="rounded=1;whiteSpace=wrap;html=1;fillColor=#f9f7ed;strokeColor=#36393d;" parent="1" vertex="1">
                    <mxGeometry x="895" y="190.38999999999996" width="44" height="47" as="geometry"/>
                </mxCell>
                <mxCell id="63" value="ALHormiguero" style="verticalLabelPosition=bottom;html=1;verticalAlign=top;align=center;strokeColor=none;fillColor=#00BEF2;shape=mxgraph.azure.cloud_services_configuration_file;pointerEvents=1;" parent="1" vertex="1">
                    <mxGeometry x="710" y="278.34" width="47.5" height="50" as="geometry"/>
                </mxCell>
                <mxCell id="64" value="&lt;font color=&quot;#1a1a1a&quot;&gt;&lt;b&gt;ALDAC&lt;/b&gt;&lt;br&gt;&lt;/font&gt;" style="rounded=1;whiteSpace=wrap;html=1;fillColor=#ffcc99;strokeColor=#36393d;rotation=-90;" parent="1" vertex="1">
                    <mxGeometry x="49" y="181.22000000000003" width="71.75" height="31.87" as="geometry"/>
                </mxCell>
                <mxCell id="65" value="&lt;font color=&quot;#1a1a1a&quot;&gt;&lt;b&gt;ALBL&lt;/b&gt;&lt;br&gt;&lt;/font&gt;" style="rounded=1;whiteSpace=wrap;html=1;fillColor=#ffcc99;strokeColor=#36393d;rotation=-90;" vertex="1" parent="1">
                    <mxGeometry x="49" y="100.95" width="71.75" height="31.87" as="geometry"/>
                </mxCell>
            </root>
        </mxGraphModel>
    </diagram>
</mxfile>